<svg width="40" height="40" viewBox="0 0 40 40" fill="none" xmlns="http://www.w3.org/2000/svg">
<g clip-path="url(#clip0_7499_12991)">
<path d="M0 20V40H20H40V20V0H20H0V20ZM39.3808 20.0413V39.4014H20.0206H0.660475V20.0413V0.681114H20.0206H39.3808V20.0413Z" fill="#22242C"/>
<path d="M19.6098 6.30591C19.4427 6.35132 19.3023 6.43388 19.164 6.57217C18.9576 6.77856 18.8647 7.0056 18.8647 7.30488C18.8647 7.61241 18.9721 7.86628 19.1867 8.06649C19.3333 8.20478 19.4881 8.28527 19.6862 8.32862C19.8617 8.36577 19.9731 8.3637 20.1547 8.32655C20.5304 8.24812 20.8193 7.99012 20.9308 7.63512C20.9886 7.45142 20.9906 7.15834 20.9329 6.98083C20.8297 6.65885 20.5655 6.40705 20.229 6.30591C20.0887 6.26463 19.7646 6.26463 19.6098 6.30591Z" fill="#22242C"/>
<path d="M15.4592 12.0838V17.6875H16.3261H17.193L17.1888 12.0879L17.1827 6.49039L16.322 6.4842L15.4592 6.48007V12.0838Z" fill="#22242C"/>
<path d="M9.86587 9.41221C8.53873 9.49477 7.46133 10.083 6.78435 11.0985C6.21881 11.9447 5.98765 13.1129 6.14245 14.3431C6.34472 15.9385 7.27145 17.1171 8.68321 17.5711C9.46546 17.8229 10.5119 17.8601 11.3003 17.664C12.4933 17.3689 13.3685 16.6073 13.7751 15.5154C13.8411 15.3338 13.9732 14.8487 13.9732 14.7827C13.9732 14.7621 13.7854 14.7559 13.0589 14.7559H12.1424L12.1177 14.8632C12.0475 15.181 11.8246 15.5629 11.5728 15.8023C11.3086 16.052 10.9907 16.2068 10.6027 16.275C10.3179 16.3245 9.84111 16.3059 9.5666 16.2337C8.73894 16.017 8.14245 15.3152 7.94224 14.3162C7.90096 14.116 7.89477 14.0211 7.89683 13.6103C7.89683 12.9623 7.96288 12.6238 8.17341 12.1821C8.53667 11.4184 9.1311 10.9808 9.9216 10.8941C10.9866 10.7806 11.8225 11.3049 12.1156 12.2729L12.161 12.4236H13.0671C13.5645 12.4236 13.9732 12.4174 13.9732 12.407C13.9732 12.3513 13.8411 11.8642 13.7792 11.695C13.3767 10.5825 12.5222 9.81468 11.3726 9.53398C10.9309 9.42665 10.3612 9.38125 9.86587 9.41221Z" fill="#22242C"/>
<path d="M26.1506 9.41305C24.8214 9.49148 23.775 10.0529 23.0402 11.0787C22.5428 11.7742 22.2786 12.767 22.3199 13.7887C22.3735 15.0746 22.7946 16.0364 23.6408 16.7959C24.2043 17.3037 24.9267 17.6215 25.8101 17.7536C26.0949 17.7949 26.9473 17.7887 27.2445 17.7433C27.9112 17.6401 28.4458 17.4419 28.9288 17.12C29.8575 16.5008 30.4396 15.5658 30.6192 14.3955C30.6666 14.0921 30.6831 13.3883 30.6522 13.0725C30.5345 11.9105 30.0474 10.9631 29.2198 10.2902C28.6831 9.85474 28.0557 9.58023 27.325 9.46259C27.1599 9.43782 26.4933 9.38416 26.4293 9.39447C26.419 9.39447 26.293 9.40273 26.1506 9.41305ZM26.7905 10.8971C27.0609 10.926 27.3416 11.0044 27.5624 11.1138C28.1094 11.3842 28.5593 11.927 28.7574 12.5606C28.8689 12.9115 28.8854 13.0539 28.8854 13.6112C28.8833 14.0653 28.8792 14.152 28.84 14.3274C28.7513 14.7196 28.6047 15.0622 28.4045 15.3449C28.0351 15.8671 27.5562 16.1705 26.937 16.2737C26.6253 16.3274 26.1362 16.3088 25.8514 16.2345C25.1083 16.0405 24.5325 15.4729 24.2621 14.668C24.1403 14.3068 24.1176 14.1272 24.1197 13.5802C24.1197 13.058 24.1465 12.862 24.2642 12.5111C24.5531 11.6483 25.2363 11.0395 26.0474 10.9198C26.3674 10.8723 26.5118 10.8682 26.7905 10.8971Z" fill="#22242C"/>
<path d="M19.0445 9.50793C19.0362 9.51412 19.03 11.3593 19.03 13.6049V17.6875H19.9072H20.7844L20.7803 13.5946L20.7741 9.5038L19.9155 9.49761C19.4449 9.49555 19.0527 9.49968 19.0445 9.50793Z" fill="#22242C"/>
<path d="M32.4046 15.634C31.8927 15.7496 31.5583 16.1809 31.5583 16.7176C31.5583 16.8559 31.612 17.0829 31.676 17.2129C31.7503 17.3657 31.9877 17.603 32.1404 17.6732C32.4665 17.8259 32.8793 17.828 33.1951 17.6773C33.4242 17.57 33.6471 17.3265 33.7276 17.0994C33.7813 16.9467 33.8019 16.6123 33.7689 16.4472C33.6946 16.0881 33.4056 15.7743 33.0465 15.6629C32.8649 15.6072 32.578 15.5948 32.4046 15.634Z" fill="#22242C"/>
<path d="M22.0785 19.4786C22.0702 19.4848 22.064 20.0008 22.064 20.6241V21.7552L21.3582 21.7593L20.6502 21.7655L20.644 22.523L20.6399 23.2826H21.3499H22.062L22.0702 25.7119C22.0764 28.3723 22.0723 28.2898 22.2003 28.6943C22.3551 29.1835 22.6089 29.4972 23.0217 29.6995C23.4717 29.9224 23.6781 29.9492 24.9392 29.9492H25.9237L25.9196 29.1897L25.9134 28.4322L25.1291 28.4219C24.386 28.4116 24.3386 28.4074 24.2354 28.3661C24.1755 28.3414 24.095 28.298 24.0558 28.2691C23.9629 28.1969 23.8659 27.9926 23.8391 27.813C23.8267 27.7242 23.8184 26.8099 23.8184 25.4745V23.2826H24.8195H25.8205V22.5189V21.7552H24.8195H23.8184V20.6097V19.4642H22.9557C22.481 19.4642 22.0847 19.4704 22.0785 19.4786Z" fill="#22242C"/>
<path d="M9.65729 21.6707C8.09279 21.7553 6.93902 22.4695 6.54274 23.6005C6.47462 23.7945 6.39826 24.1165 6.39826 24.2135V24.2713H7.24449H8.08866L8.11136 24.1826C8.24346 23.6583 8.68102 23.2744 9.31879 23.1258C9.68205 23.0412 10.2414 23.0453 10.6047 23.1382C10.9514 23.2249 11.2693 23.4251 11.453 23.6666C11.6532 23.9328 11.7233 24.2073 11.7233 24.7275V25.0144H10.6005C9.98133 25.0144 9.33531 25.0247 9.15987 25.0371C7.88226 25.1258 7.00507 25.5345 6.52622 26.2631C6.12788 26.8699 6.03912 27.8234 6.31363 28.5355C6.5159 29.0598 7.0092 29.5242 7.62426 29.7739C8.29919 30.0443 9.23211 30.1268 9.96482 29.9762C10.3652 29.8957 10.8193 29.6975 11.133 29.4664C11.3312 29.3198 11.6325 29.0205 11.7749 28.8265C11.8843 28.6759 11.905 28.6779 11.907 28.8348C11.9091 28.9545 11.9855 29.2187 12.0556 29.3508C12.1403 29.5076 12.3405 29.6975 12.5118 29.7801C12.7945 29.9184 12.8998 29.9328 13.649 29.9431L14.324 29.9493V29.1981V28.4447L14.0309 28.4364C13.7625 28.4302 13.7275 28.4261 13.6428 28.3786C13.5747 28.3415 13.5355 28.3002 13.4984 28.2238L13.4468 28.1207L13.4344 26.1186C13.4241 24.1888 13.422 24.1103 13.3807 23.9204C13.2466 23.3136 13.0463 22.9256 12.6748 22.5562C12.2269 22.1083 11.6573 21.8441 10.8833 21.7244C10.7079 21.6955 10.0247 21.6439 9.95863 21.6542C9.94831 21.6542 9.81209 21.6624 9.65729 21.6707ZM11.7233 26.4901C11.7233 27.1547 11.5458 27.6542 11.1661 28.0546C10.9122 28.325 10.5716 28.5169 10.163 28.6201C9.95037 28.6738 9.91116 28.6779 9.47359 28.6779C9.05048 28.6779 8.99475 28.6738 8.84614 28.6305C8.36317 28.4901 8.03087 28.1764 7.94831 27.7842C7.93592 27.7244 7.92561 27.6026 7.92561 27.5159C7.92767 26.9648 8.20011 26.5933 8.73056 26.4199C9.01539 26.327 9.16193 26.3188 10.4808 26.3167L11.7233 26.3147V26.4901Z" fill="#22242C"/>
<path d="M15.418 25.8522V29.9492H16.2848H17.1517V27.7944C17.1517 25.3238 17.1558 25.2268 17.3106 24.7377C17.4985 24.1391 17.8411 23.7304 18.3137 23.5344C18.5841 23.4208 18.7348 23.4002 19.3705 23.3878L19.9484 23.3754V22.5705V21.7655L19.5563 21.7676C19.129 21.7697 18.8978 21.7985 18.5862 21.8894C18.0495 22.0462 17.6058 22.3517 17.2838 22.7851C17.2178 22.8759 17.1579 22.9441 17.1497 22.9358C17.1393 22.9234 16.9639 21.8171 16.966 21.7697C16.966 21.7614 16.6171 21.7552 16.192 21.7552H15.418V25.8522Z" fill="#22242C"/>
<path d="M27.3064 30.8775V31.7031H30.454H33.6015V30.8775V30.0519H30.454H27.3064V30.8775Z" fill="#22242C"/>
</g>
<defs>
<clipPath id="clip0_7499_12991">
<rect width="40" height="40" fill="#22242C"/>
</clipPath>
</defs>
</svg>
